<mxfile host="app.diagrams.net" modified="2023-06-22T20:41:22.935Z" agent="Mozilla/5.0 (Macintosh; Intel Mac OS X 10_15_7) AppleWebKit/605.1.15 (KHTML, like Gecko) Version/16.5 Safari/605.1.15" etag="xiYr0wy02tvEawqlkdG3" version="21.5.0" type="device">
  <diagram id="RJ2M5GttY93g6CErPwEI" name="Page-1">
    <mxGraphModel dx="390" dy="938" grid="1" gridSize="5" guides="1" tooltips="1" connect="1" arrows="1" fold="1" page="0" pageScale="1" pageWidth="850" pageHeight="1100" math="0" shadow="0">
      <root>
        <mxCell id="0" />
        <mxCell id="1" parent="0" />
        <mxCell id="hVCSb160HCJ6AdvOnuja-1" value="" style="endArrow=none;dashed=1;html=1;dashPattern=1 3;strokeWidth=2;rounded=0;" parent="1" edge="1">
          <mxGeometry width="50" height="50" relative="1" as="geometry">
            <mxPoint x="520" y="530" as="sourcePoint" />
            <mxPoint x="1020" y="530" as="targetPoint" />
          </mxGeometry>
        </mxCell>
        <mxCell id="Rv4oQAjvhtdQoDFrsDv1-49" value="" style="rounded=0;whiteSpace=wrap;html=1;strokeWidth=1;spacing=2;" parent="1" vertex="1">
          <mxGeometry x="559.97" y="370" width="160" height="130" as="geometry" />
        </mxCell>
        <mxCell id="Rv4oQAjvhtdQoDFrsDv1-51" value="&lt;font face=&quot;LMMonoLt10-Regular&quot; style=&quot;font-size: 16px;&quot;&gt;0x1000&lt;/font&gt;" style="text;html=1;strokeColor=none;fillColor=none;align=center;verticalAlign=middle;whiteSpace=wrap;rounded=0;fontStyle=1" parent="1" vertex="1">
          <mxGeometry x="740" y="360" width="60" height="30" as="geometry" />
        </mxCell>
        <mxCell id="Rv4oQAjvhtdQoDFrsDv1-52" value="&lt;font face=&quot;LMMonoLt10-Regular&quot; style=&quot;font-size: 16px;&quot;&gt;0x1500&lt;/font&gt;" style="text;html=1;strokeColor=none;fillColor=none;align=center;verticalAlign=middle;whiteSpace=wrap;rounded=0;strokeWidth=1;fontStyle=1" parent="1" vertex="1">
          <mxGeometry x="740" y="480" width="60" height="30" as="geometry" />
        </mxCell>
        <mxCell id="Rv4oQAjvhtdQoDFrsDv1-53" value="" style="endArrow=none;html=1;rounded=0;fontSize=16;strokeWidth=3;startArrow=none;strokeColor=#808080;" parent="1" source="Rv4oQAjvhtdQoDFrsDv1-74" edge="1">
          <mxGeometry width="50" height="50" relative="1" as="geometry">
            <mxPoint x="579.97" y="394.76" as="sourcePoint" />
            <mxPoint x="699.97" y="394.76" as="targetPoint" />
            <Array as="points" />
          </mxGeometry>
        </mxCell>
        <mxCell id="Rv4oQAjvhtdQoDFrsDv1-54" value="" style="endArrow=none;html=1;rounded=0;fontSize=16;strokeWidth=3;strokeColor=#808080;" parent="1" edge="1">
          <mxGeometry width="50" height="50" relative="1" as="geometry">
            <mxPoint x="579.97" y="414.76" as="sourcePoint" />
            <mxPoint x="699.97" y="414.76" as="targetPoint" />
            <Array as="points" />
          </mxGeometry>
        </mxCell>
        <mxCell id="Rv4oQAjvhtdQoDFrsDv1-55" value="" style="endArrow=none;html=1;rounded=0;fontSize=16;strokeWidth=3;strokeColor=#808080;" parent="1" edge="1">
          <mxGeometry width="50" height="50" relative="1" as="geometry">
            <mxPoint x="579.97" y="434.76" as="sourcePoint" />
            <mxPoint x="699.97" y="434.76" as="targetPoint" />
            <Array as="points" />
          </mxGeometry>
        </mxCell>
        <mxCell id="Rv4oQAjvhtdQoDFrsDv1-56" value="" style="endArrow=none;html=1;rounded=0;fontSize=16;strokeWidth=3;startArrow=none;" parent="1" source="Rv4oQAjvhtdQoDFrsDv1-78" edge="1">
          <mxGeometry width="50" height="50" relative="1" as="geometry">
            <mxPoint x="579.97" y="454.76" as="sourcePoint" />
            <mxPoint x="699.97" y="454.76" as="targetPoint" />
            <Array as="points" />
          </mxGeometry>
        </mxCell>
        <mxCell id="Rv4oQAjvhtdQoDFrsDv1-57" value="" style="endArrow=none;html=1;rounded=0;fontSize=16;strokeWidth=3;strokeColor=#808080;" parent="1" edge="1">
          <mxGeometry width="50" height="50" relative="1" as="geometry">
            <mxPoint x="579.97" y="474.76" as="sourcePoint" />
            <mxPoint x="699.97" y="474.76" as="targetPoint" />
            <Array as="points">
              <mxPoint x="639.97" y="474.76" />
            </Array>
          </mxGeometry>
        </mxCell>
        <mxCell id="Rv4oQAjvhtdQoDFrsDv1-72" style="edgeStyle=orthogonalEdgeStyle;rounded=0;orthogonalLoop=1;jettySize=auto;html=1;exitX=1;exitY=1;exitDx=0;exitDy=0;strokeColor=#000000;strokeWidth=2;fontSize=12;entryX=1;entryY=0;entryDx=0;entryDy=0;" parent="1" source="Rv4oQAjvhtdQoDFrsDv1-74" target="Rv4oQAjvhtdQoDFrsDv1-78" edge="1">
          <mxGeometry relative="1" as="geometry">
            <mxPoint x="740" y="495" as="targetPoint" />
            <Array as="points">
              <mxPoint x="740" y="405" />
              <mxPoint x="740" y="445" />
            </Array>
          </mxGeometry>
        </mxCell>
        <mxCell id="Rv4oQAjvhtdQoDFrsDv1-75" value="" style="endArrow=none;html=1;rounded=0;fontSize=16;strokeWidth=3;strokeColor=#808080;" parent="1" target="Rv4oQAjvhtdQoDFrsDv1-74" edge="1">
          <mxGeometry width="50" height="50" relative="1" as="geometry">
            <mxPoint x="579.97" y="394.76" as="sourcePoint" />
            <mxPoint x="699.97" y="394.76" as="targetPoint" />
            <Array as="points" />
          </mxGeometry>
        </mxCell>
        <mxCell id="Rv4oQAjvhtdQoDFrsDv1-79" value="" style="endArrow=none;html=1;rounded=0;fontSize=16;strokeWidth=3;strokeColor=#808080;" parent="1" target="Rv4oQAjvhtdQoDFrsDv1-78" edge="1">
          <mxGeometry width="50" height="50" relative="1" as="geometry">
            <mxPoint x="579.97" y="454.76" as="sourcePoint" />
            <mxPoint x="699.97" y="454.76" as="targetPoint" />
            <Array as="points" />
          </mxGeometry>
        </mxCell>
        <mxCell id="Rv4oQAjvhtdQoDFrsDv1-74" value="&lt;font face=&quot;LMMonoLt10-Regular&quot; style=&quot;font-size: 12px;&quot;&gt;&lt;b&gt;0x13FC&lt;/b&gt;&lt;/font&gt;" style="rounded=0;whiteSpace=wrap;html=1;fontSize=16;strokeWidth=2;spacing=2;spacingBottom=4;" parent="1" vertex="1">
          <mxGeometry x="580.5" y="385.5" width="60" height="20" as="geometry" />
        </mxCell>
        <mxCell id="Rv4oQAjvhtdQoDFrsDv1-78" value="&lt;font face=&quot;LMMonoLt10-Regular&quot; style=&quot;font-size: 12px;&quot;&gt;0x0010&lt;/font&gt;" style="rounded=0;whiteSpace=wrap;html=1;fontSize=16;verticalAlign=middle;strokeWidth=1;spacingBottom=2;" parent="1" vertex="1">
          <mxGeometry x="640" y="445" width="60" height="20" as="geometry" />
        </mxCell>
        <mxCell id="4aKVt0GdKdWYYm91D229-1" value="" style="rounded=0;whiteSpace=wrap;html=1;strokeWidth=1;" parent="1" vertex="1">
          <mxGeometry x="559.97" y="560" width="160" height="130" as="geometry" />
        </mxCell>
        <mxCell id="4aKVt0GdKdWYYm91D229-2" value="&lt;font face=&quot;LMMonoLt10-Regular&quot; style=&quot;font-size: 16px;&quot;&gt;0x1500&lt;/font&gt;" style="text;html=1;strokeColor=none;fillColor=none;align=center;verticalAlign=middle;whiteSpace=wrap;rounded=0;fontStyle=1" parent="1" vertex="1">
          <mxGeometry x="740" y="550" width="60" height="30" as="geometry" />
        </mxCell>
        <mxCell id="4aKVt0GdKdWYYm91D229-3" value="&lt;font face=&quot;LMMonoLt10-Regular&quot; style=&quot;font-size: 16px;&quot;&gt;0x1A00&lt;/font&gt;" style="text;html=1;strokeColor=none;fillColor=none;align=center;verticalAlign=middle;whiteSpace=wrap;rounded=0;strokeWidth=1;fontStyle=1" parent="1" vertex="1">
          <mxGeometry x="740" y="670" width="60" height="30" as="geometry" />
        </mxCell>
        <mxCell id="4aKVt0GdKdWYYm91D229-4" value="" style="endArrow=none;html=1;rounded=0;fontSize=16;strokeWidth=3;startArrow=none;strokeColor=#808080;" parent="1" source="4aKVt0GdKdWYYm91D229-12" edge="1">
          <mxGeometry width="50" height="50" relative="1" as="geometry">
            <mxPoint x="579.97" y="584.76" as="sourcePoint" />
            <mxPoint x="699.97" y="584.76" as="targetPoint" />
            <Array as="points" />
          </mxGeometry>
        </mxCell>
        <mxCell id="4aKVt0GdKdWYYm91D229-5" value="" style="endArrow=none;html=1;rounded=0;fontSize=16;strokeWidth=3;strokeColor=#808080;" parent="1" edge="1">
          <mxGeometry width="50" height="50" relative="1" as="geometry">
            <mxPoint x="579.97" y="604.76" as="sourcePoint" />
            <mxPoint x="699.97" y="604.76" as="targetPoint" />
            <Array as="points" />
          </mxGeometry>
        </mxCell>
        <mxCell id="4aKVt0GdKdWYYm91D229-6" value="" style="endArrow=none;html=1;rounded=0;fontSize=16;strokeWidth=3;strokeColor=#808080;" parent="1" edge="1">
          <mxGeometry width="50" height="50" relative="1" as="geometry">
            <mxPoint x="579.97" y="624.76" as="sourcePoint" />
            <mxPoint x="699.97" y="624.76" as="targetPoint" />
            <Array as="points" />
          </mxGeometry>
        </mxCell>
        <mxCell id="4aKVt0GdKdWYYm91D229-7" value="" style="endArrow=none;html=1;rounded=0;fontSize=16;strokeWidth=3;startArrow=none;" parent="1" source="4aKVt0GdKdWYYm91D229-13" edge="1">
          <mxGeometry width="50" height="50" relative="1" as="geometry">
            <mxPoint x="579.97" y="644.76" as="sourcePoint" />
            <mxPoint x="699.97" y="644.76" as="targetPoint" />
            <Array as="points" />
          </mxGeometry>
        </mxCell>
        <mxCell id="4aKVt0GdKdWYYm91D229-8" value="" style="endArrow=none;html=1;rounded=0;fontSize=16;strokeWidth=3;strokeColor=#808080;" parent="1" edge="1">
          <mxGeometry width="50" height="50" relative="1" as="geometry">
            <mxPoint x="579.97" y="664.76" as="sourcePoint" />
            <mxPoint x="699.97" y="664.76" as="targetPoint" />
            <Array as="points">
              <mxPoint x="639.97" y="664.76" />
            </Array>
          </mxGeometry>
        </mxCell>
        <mxCell id="4aKVt0GdKdWYYm91D229-9" style="edgeStyle=orthogonalEdgeStyle;rounded=0;orthogonalLoop=1;jettySize=auto;html=1;exitX=0;exitY=1;exitDx=0;exitDy=0;strokeColor=#000000;strokeWidth=2;fontSize=12;entryX=0;entryY=0;entryDx=0;entryDy=0;" parent="1" source="4aKVt0GdKdWYYm91D229-12" target="Rv4oQAjvhtdQoDFrsDv1-78" edge="1">
          <mxGeometry relative="1" as="geometry">
            <mxPoint x="639.97" y="465" as="targetPoint" />
            <Array as="points">
              <mxPoint x="540" y="595" />
              <mxPoint x="540" y="445" />
            </Array>
          </mxGeometry>
        </mxCell>
        <mxCell id="4aKVt0GdKdWYYm91D229-10" value="" style="endArrow=none;html=1;rounded=0;fontSize=16;strokeWidth=3;strokeColor=#808080;" parent="1" target="4aKVt0GdKdWYYm91D229-12" edge="1">
          <mxGeometry width="50" height="50" relative="1" as="geometry">
            <mxPoint x="579.97" y="584.76" as="sourcePoint" />
            <mxPoint x="699.97" y="584.76" as="targetPoint" />
            <Array as="points" />
          </mxGeometry>
        </mxCell>
        <mxCell id="4aKVt0GdKdWYYm91D229-11" value="" style="endArrow=none;html=1;rounded=0;fontSize=16;strokeWidth=3;strokeColor=#808080;" parent="1" target="4aKVt0GdKdWYYm91D229-13" edge="1">
          <mxGeometry width="50" height="50" relative="1" as="geometry">
            <mxPoint x="579.97" y="644.76" as="sourcePoint" />
            <mxPoint x="699.97" y="644.76" as="targetPoint" />
            <Array as="points" />
          </mxGeometry>
        </mxCell>
        <mxCell id="4aKVt0GdKdWYYm91D229-12" value="&lt;font face=&quot;LMMonoLt10-Regular&quot; style=&quot;font-size: 12px;&quot;&gt;&lt;b&gt;0x13FC&lt;/b&gt;&lt;/font&gt;" style="rounded=0;whiteSpace=wrap;html=1;fontSize=16;strokeWidth=2;spacing=2;spacingBottom=4;" parent="1" vertex="1">
          <mxGeometry x="580.5" y="575.5" width="60" height="20" as="geometry" />
        </mxCell>
        <mxCell id="4aKVt0GdKdWYYm91D229-13" value="&lt;font face=&quot;LMMonoLt10-Regular&quot; style=&quot;font-size: 12px;&quot;&gt;0x0010&lt;/font&gt;" style="rounded=0;whiteSpace=wrap;html=1;fontSize=16;verticalAlign=middle;strokeWidth=1;spacingBottom=2;" parent="1" vertex="1">
          <mxGeometry x="640" y="635" width="60" height="20" as="geometry" />
        </mxCell>
        <mxCell id="4aKVt0GdKdWYYm91D229-15" value="" style="rounded=0;whiteSpace=wrap;html=1;strokeWidth=1;" parent="1" vertex="1">
          <mxGeometry x="820" y="370" width="160" height="130" as="geometry" />
        </mxCell>
        <mxCell id="4aKVt0GdKdWYYm91D229-18" value="" style="endArrow=none;html=1;rounded=0;fontSize=16;strokeWidth=3;startArrow=none;strokeColor=#808080;" parent="1" source="4aKVt0GdKdWYYm91D229-26" edge="1">
          <mxGeometry width="50" height="50" relative="1" as="geometry">
            <mxPoint x="840" y="394.76" as="sourcePoint" />
            <mxPoint x="960" y="394.76" as="targetPoint" />
            <Array as="points" />
          </mxGeometry>
        </mxCell>
        <mxCell id="4aKVt0GdKdWYYm91D229-19" value="" style="endArrow=none;html=1;rounded=0;fontSize=16;strokeWidth=3;strokeColor=#808080;" parent="1" edge="1">
          <mxGeometry width="50" height="50" relative="1" as="geometry">
            <mxPoint x="840" y="414.76" as="sourcePoint" />
            <mxPoint x="960" y="414.76" as="targetPoint" />
            <Array as="points" />
          </mxGeometry>
        </mxCell>
        <mxCell id="4aKVt0GdKdWYYm91D229-20" value="" style="endArrow=none;html=1;rounded=0;fontSize=16;strokeWidth=3;strokeColor=#808080;" parent="1" edge="1">
          <mxGeometry width="50" height="50" relative="1" as="geometry">
            <mxPoint x="840" y="434.76" as="sourcePoint" />
            <mxPoint x="960" y="434.76" as="targetPoint" />
            <Array as="points" />
          </mxGeometry>
        </mxCell>
        <mxCell id="4aKVt0GdKdWYYm91D229-21" value="" style="endArrow=none;html=1;rounded=0;fontSize=16;strokeWidth=3;startArrow=none;" parent="1" source="4aKVt0GdKdWYYm91D229-27" edge="1">
          <mxGeometry width="50" height="50" relative="1" as="geometry">
            <mxPoint x="840" y="454.76" as="sourcePoint" />
            <mxPoint x="960" y="454.76" as="targetPoint" />
            <Array as="points" />
          </mxGeometry>
        </mxCell>
        <mxCell id="4aKVt0GdKdWYYm91D229-22" value="" style="endArrow=none;html=1;rounded=0;fontSize=16;strokeWidth=3;strokeColor=#808080;" parent="1" edge="1">
          <mxGeometry width="50" height="50" relative="1" as="geometry">
            <mxPoint x="840" y="474.76" as="sourcePoint" />
            <mxPoint x="960" y="474.76" as="targetPoint" />
            <Array as="points">
              <mxPoint x="900" y="474.76" />
            </Array>
          </mxGeometry>
        </mxCell>
        <mxCell id="4aKVt0GdKdWYYm91D229-23" style="edgeStyle=orthogonalEdgeStyle;rounded=0;orthogonalLoop=1;jettySize=auto;html=1;exitX=1;exitY=1;exitDx=0;exitDy=0;strokeColor=#000000;strokeWidth=2;fontSize=12;entryX=1;entryY=0;entryDx=0;entryDy=0;" parent="1" source="4aKVt0GdKdWYYm91D229-26" target="4aKVt0GdKdWYYm91D229-27" edge="1">
          <mxGeometry relative="1" as="geometry">
            <mxPoint x="980" y="495" as="targetPoint" />
            <Array as="points">
              <mxPoint x="1000" y="405" />
              <mxPoint x="1000" y="445" />
            </Array>
          </mxGeometry>
        </mxCell>
        <mxCell id="4aKVt0GdKdWYYm91D229-24" value="" style="endArrow=none;html=1;rounded=0;fontSize=16;strokeWidth=3;strokeColor=#808080;" parent="1" target="4aKVt0GdKdWYYm91D229-26" edge="1">
          <mxGeometry width="50" height="50" relative="1" as="geometry">
            <mxPoint x="840" y="394.76" as="sourcePoint" />
            <mxPoint x="960" y="394.76" as="targetPoint" />
            <Array as="points" />
          </mxGeometry>
        </mxCell>
        <mxCell id="4aKVt0GdKdWYYm91D229-25" value="" style="endArrow=none;html=1;rounded=0;fontSize=16;strokeWidth=3;strokeColor=#808080;" parent="1" target="4aKVt0GdKdWYYm91D229-27" edge="1">
          <mxGeometry width="50" height="50" relative="1" as="geometry">
            <mxPoint x="840" y="454.76" as="sourcePoint" />
            <mxPoint x="960" y="454.76" as="targetPoint" />
            <Array as="points" />
          </mxGeometry>
        </mxCell>
        <mxCell id="4aKVt0GdKdWYYm91D229-26" value="&lt;font face=&quot;LMMonoLt10-Regular&quot; style=&quot;font-size: 12px;&quot;&gt;&lt;b&gt;0x03FC&lt;/b&gt;&lt;/font&gt;" style="rounded=0;whiteSpace=wrap;html=1;fontSize=16;strokeWidth=2;spacing=2;spacingBottom=4;" parent="1" vertex="1">
          <mxGeometry x="840.5" y="385.5" width="60" height="20" as="geometry" />
        </mxCell>
        <mxCell id="4aKVt0GdKdWYYm91D229-27" value="&lt;font face=&quot;LMMonoLt10-Regular&quot; style=&quot;font-size: 12px;&quot;&gt;0x0010&lt;/font&gt;" style="rounded=0;whiteSpace=wrap;html=1;fontSize=16;verticalAlign=middle;strokeWidth=1;spacingBottom=2;" parent="1" vertex="1">
          <mxGeometry x="900" y="445" width="60" height="20" as="geometry" />
        </mxCell>
        <mxCell id="4aKVt0GdKdWYYm91D229-41" value="" style="rounded=0;whiteSpace=wrap;html=1;strokeWidth=1;" parent="1" vertex="1">
          <mxGeometry x="820" y="560" width="160" height="130" as="geometry" />
        </mxCell>
        <mxCell id="4aKVt0GdKdWYYm91D229-44" value="" style="endArrow=none;html=1;rounded=0;fontSize=16;strokeWidth=3;startArrow=none;strokeColor=#808080;" parent="1" source="4aKVt0GdKdWYYm91D229-52" edge="1">
          <mxGeometry width="50" height="50" relative="1" as="geometry">
            <mxPoint x="840" y="584.76" as="sourcePoint" />
            <mxPoint x="960" y="584.76" as="targetPoint" />
            <Array as="points" />
          </mxGeometry>
        </mxCell>
        <mxCell id="4aKVt0GdKdWYYm91D229-45" value="" style="endArrow=none;html=1;rounded=0;fontSize=16;strokeWidth=3;strokeColor=#808080;" parent="1" edge="1">
          <mxGeometry width="50" height="50" relative="1" as="geometry">
            <mxPoint x="840" y="604.76" as="sourcePoint" />
            <mxPoint x="960" y="604.76" as="targetPoint" />
            <Array as="points" />
          </mxGeometry>
        </mxCell>
        <mxCell id="4aKVt0GdKdWYYm91D229-46" value="" style="endArrow=none;html=1;rounded=0;fontSize=16;strokeWidth=3;strokeColor=#808080;" parent="1" edge="1">
          <mxGeometry width="50" height="50" relative="1" as="geometry">
            <mxPoint x="840" y="624.76" as="sourcePoint" />
            <mxPoint x="960" y="624.76" as="targetPoint" />
            <Array as="points" />
          </mxGeometry>
        </mxCell>
        <mxCell id="4aKVt0GdKdWYYm91D229-47" value="" style="endArrow=none;html=1;rounded=0;fontSize=16;strokeWidth=3;startArrow=none;" parent="1" source="4aKVt0GdKdWYYm91D229-53" edge="1">
          <mxGeometry width="50" height="50" relative="1" as="geometry">
            <mxPoint x="840" y="644.76" as="sourcePoint" />
            <mxPoint x="960" y="644.76" as="targetPoint" />
            <Array as="points" />
          </mxGeometry>
        </mxCell>
        <mxCell id="4aKVt0GdKdWYYm91D229-48" value="" style="endArrow=none;html=1;rounded=0;fontSize=16;strokeWidth=3;strokeColor=#808080;" parent="1" edge="1">
          <mxGeometry width="50" height="50" relative="1" as="geometry">
            <mxPoint x="840" y="664.76" as="sourcePoint" />
            <mxPoint x="960" y="664.76" as="targetPoint" />
            <Array as="points">
              <mxPoint x="900" y="664.76" />
            </Array>
          </mxGeometry>
        </mxCell>
        <mxCell id="4aKVt0GdKdWYYm91D229-49" style="edgeStyle=orthogonalEdgeStyle;rounded=0;orthogonalLoop=1;jettySize=auto;html=1;exitX=1;exitY=1;exitDx=0;exitDy=0;strokeColor=#000000;strokeWidth=2;fontSize=12;entryX=1;entryY=0;entryDx=0;entryDy=0;" parent="1" source="4aKVt0GdKdWYYm91D229-52" target="4aKVt0GdKdWYYm91D229-53" edge="1">
          <mxGeometry relative="1" as="geometry">
            <mxPoint x="980" y="685" as="targetPoint" />
            <Array as="points">
              <mxPoint x="1000" y="595" />
              <mxPoint x="1000" y="635" />
            </Array>
          </mxGeometry>
        </mxCell>
        <mxCell id="4aKVt0GdKdWYYm91D229-50" value="" style="endArrow=none;html=1;rounded=0;fontSize=16;strokeWidth=3;strokeColor=#808080;" parent="1" target="4aKVt0GdKdWYYm91D229-52" edge="1">
          <mxGeometry width="50" height="50" relative="1" as="geometry">
            <mxPoint x="840" y="584.76" as="sourcePoint" />
            <mxPoint x="960" y="584.76" as="targetPoint" />
            <Array as="points" />
          </mxGeometry>
        </mxCell>
        <mxCell id="4aKVt0GdKdWYYm91D229-51" value="" style="endArrow=none;html=1;rounded=0;fontSize=16;strokeWidth=3;strokeColor=#808080;" parent="1" target="4aKVt0GdKdWYYm91D229-53" edge="1">
          <mxGeometry width="50" height="50" relative="1" as="geometry">
            <mxPoint x="840" y="644.76" as="sourcePoint" />
            <mxPoint x="960" y="644.76" as="targetPoint" />
            <Array as="points" />
          </mxGeometry>
        </mxCell>
        <mxCell id="4aKVt0GdKdWYYm91D229-52" value="&lt;font face=&quot;LMMonoLt10-Regular&quot; style=&quot;font-size: 12px;&quot;&gt;&lt;b&gt;0x03FC&lt;/b&gt;&lt;/font&gt;" style="rounded=0;whiteSpace=wrap;html=1;fontSize=16;strokeWidth=2;spacing=2;spacingBottom=4;" parent="1" vertex="1">
          <mxGeometry x="840.5" y="575.5" width="60" height="20" as="geometry" />
        </mxCell>
        <mxCell id="4aKVt0GdKdWYYm91D229-53" value="&lt;font face=&quot;LMMonoLt10-Regular&quot; style=&quot;font-size: 12px;&quot;&gt;0x0010&lt;/font&gt;" style="rounded=0;whiteSpace=wrap;html=1;fontSize=16;verticalAlign=middle;strokeWidth=1;spacingBottom=2;" parent="1" vertex="1">
          <mxGeometry x="900" y="635" width="60" height="20" as="geometry" />
        </mxCell>
        <mxCell id="4aKVt0GdKdWYYm91D229-54" value="&lt;b&gt;Absolute Addressing&lt;/b&gt;" style="text;html=1;strokeColor=none;fillColor=none;align=center;verticalAlign=middle;whiteSpace=wrap;rounded=0;fontFamily=LMRoman10-Regular;fontSize=16;fontColor=default;" parent="1" vertex="1">
          <mxGeometry x="559.97" y="340" width="160" height="30" as="geometry" />
        </mxCell>
        <mxCell id="4aKVt0GdKdWYYm91D229-55" value="&lt;b&gt;Relative Addressing&lt;/b&gt;" style="text;html=1;strokeColor=none;fillColor=none;align=center;verticalAlign=middle;whiteSpace=wrap;rounded=0;fontFamily=LMRoman10-Regular;fontSize=16;fontColor=default;" parent="1" vertex="1">
          <mxGeometry x="820" y="340" width="160" height="30" as="geometry" />
        </mxCell>
        <mxCell id="7iuRrWOx0t9q8Eat3_1Y-1" value="" style="rounded=0;whiteSpace=wrap;html=1;fillColor=default;strokeColor=none;" vertex="1" parent="1">
          <mxGeometry x="615" y="525" width="55" height="10" as="geometry" />
        </mxCell>
        <mxCell id="4aKVt0GdKdWYYm91D229-57" value="" style="shape=flexArrow;endArrow=classic;html=1;rounded=0;endWidth=21.665765278528937;endSize=6;width=6.927374301675978;startSize=6;strokeWidth=2;fillColor=default;" parent="1" edge="1">
          <mxGeometry x="0.5" y="-150" width="50" height="50" relative="1" as="geometry">
            <mxPoint x="640.1400000000001" y="510" as="sourcePoint" />
            <mxPoint x="640.1400000000001" y="550" as="targetPoint" />
            <mxPoint as="offset" />
          </mxGeometry>
        </mxCell>
        <mxCell id="7iuRrWOx0t9q8Eat3_1Y-2" value="" style="rounded=0;whiteSpace=wrap;html=1;fillColor=default;strokeColor=none;" vertex="1" parent="1">
          <mxGeometry x="875" y="525" width="50" height="10" as="geometry" />
        </mxCell>
        <mxCell id="4aKVt0GdKdWYYm91D229-58" value="" style="shape=flexArrow;endArrow=classic;html=1;rounded=0;endWidth=21.665765278528937;endSize=6;width=6.927374301675978;startSize=6;strokeWidth=2;fillColor=default;" parent="1" edge="1">
          <mxGeometry width="50" height="50" relative="1" as="geometry">
            <mxPoint x="901" y="510" as="sourcePoint" />
            <mxPoint x="901" y="550" as="targetPoint" />
          </mxGeometry>
        </mxCell>
      </root>
    </mxGraphModel>
  </diagram>
</mxfile>
